<!-- <svg
  xmlns="http://www.w3.org/2000/svg"
  viewBox="0 0 64 64"
  fill="none"
  stroke="currentColor"
  stroke-width="2"
  stroke-linecap="round"
  stroke-linejoin="round"
  class="w-16 h-16 text-accent group-hover:text-white"
>
  <circle cx="32" cy="32" r="30" />
  <path d="M10 32h44M32 10v44" />
  <path d="M20 20a12 12 0 0 1 24 0m-24 24a12 12 0 0 1 24 0" />
</svg> -->

<svg xmlns="http://www.w3.org/2000/svg" fill="currentColor" class="bi bi-geo-alt" viewBox="0 0 20 20">
  <path d="M12.166 8.94c-.524 1.062-1.234 2.12-1.96 3.07A32 32 0 0 1 8 14.58a32 32 0 0 1-2.206-2.57c-.726-.95-1.436-2.008-1.96-3.07C3.304 7.867 3 6.862 3 6a5 5 0 0 1 10 0c0 .862-.305 1.867-.834 2.94M8 16s6-5.686 6-10A6 6 0 0 0 2 6c0 4.314 6 10 6 10"/>
  <path d="M8 8a2 2 0 1 1 0-4 2 2 0 0 1 0 4m0 1a3 3 0 1 0 0-6 3 3 0 0 0 0 6"/>
</svg>